<svg width="319" height="375" viewBox="0 0 319 375" fill="none" xmlns="http://www.w3.org/2000/svg">
<path d="M18.7434 304.352H25.7994V344H18.7434V304.352ZM35.0013 317.12H41.3853V321.432H41.4973C42.132 320.088 43.1026 318.931 44.4093 317.96C45.716 316.952 47.4893 316.448 49.7293 316.448C51.5213 316.448 53.0333 316.747 54.2653 317.344C55.5346 317.941 56.5613 318.725 57.3453 319.696C58.1293 320.667 58.6893 321.787 59.0253 323.056C59.3613 324.325 59.5293 325.651 59.5293 327.032V344H52.8093V330.392C52.8093 329.645 52.772 328.824 52.6973 327.928C52.6226 326.995 52.4173 326.136 52.0813 325.352C51.7826 324.531 51.2973 323.859 50.6253 323.336C49.9533 322.776 49.0386 322.496 47.8813 322.496C46.7613 322.496 45.8093 322.683 45.0253 323.056C44.2786 323.429 43.644 323.933 43.1213 324.568C42.636 325.203 42.2813 325.931 42.0573 326.752C41.8333 327.573 41.7213 328.432 41.7213 329.328V344H35.0013V317.12ZM70.6855 322.832H65.1415V317.12H70.6855V313.312C70.6855 311.445 70.8162 309.765 71.0775 308.272C71.3389 306.741 71.8242 305.435 72.5335 304.352C73.2802 303.269 74.3069 302.448 75.6135 301.888C76.9202 301.291 78.6189 300.992 80.7095 300.992C82.2402 300.992 83.6589 301.123 84.9655 301.384L84.5175 307.096C84.0322 306.984 83.5655 306.891 83.1175 306.816C82.6695 306.741 82.2029 306.704 81.7175 306.704C80.7842 306.704 80.0375 306.853 79.4775 307.152C78.9175 307.451 78.4695 307.861 78.1335 308.384C77.8349 308.869 77.6295 309.448 77.5175 310.12C77.4429 310.792 77.4055 311.501 77.4055 312.248V317.12H83.6215V322.832H77.4055V344H70.6855V322.832ZM87.741 330.56C87.741 328.432 88.1144 326.509 88.861 324.792C89.645 323.037 90.6904 321.544 91.997 320.312C93.3037 319.08 94.853 318.128 96.645 317.456C98.437 316.784 100.341 316.448 102.357 316.448C104.373 316.448 106.277 316.784 108.069 317.456C109.861 318.128 111.41 319.08 112.717 320.312C114.024 321.544 115.05 323.037 115.797 324.792C116.581 326.509 116.973 328.432 116.973 330.56C116.973 332.688 116.581 334.629 115.797 336.384C115.05 338.101 114.024 339.576 112.717 340.808C111.41 342.04 109.861 342.992 108.069 343.664C106.277 344.336 104.373 344.672 102.357 344.672C100.341 344.672 98.437 344.336 96.645 343.664C94.853 342.992 93.3037 342.04 91.997 340.808C90.6904 339.576 89.645 338.101 88.861 336.384C88.1144 334.629 87.741 332.688 87.741 330.56ZM94.461 330.56C94.461 331.605 94.629 332.613 94.965 333.584C95.3384 334.555 95.861 335.413 96.533 336.16C97.2424 336.907 98.0824 337.504 99.053 337.952C100.024 338.4 101.125 338.624 102.357 338.624C103.589 338.624 104.69 338.4 105.661 337.952C106.632 337.504 107.453 336.907 108.125 336.16C108.834 335.413 109.357 334.555 109.693 333.584C110.066 332.613 110.253 331.605 110.253 330.56C110.253 329.515 110.066 328.507 109.693 327.536C109.357 326.565 108.834 325.707 108.125 324.96C107.453 324.213 106.632 323.616 105.661 323.168C104.69 322.72 103.589 322.496 102.357 322.496C101.125 322.496 100.024 322.72 99.053 323.168C98.0824 323.616 97.2424 324.213 96.533 324.96C95.861 325.707 95.3384 326.565 94.965 327.536C94.629 328.507 94.461 329.515 94.461 330.56ZM152.217 313.648C150.761 312.08 149.342 311.035 147.961 310.512C146.617 309.989 145.254 309.728 143.873 309.728C141.819 309.728 139.953 310.101 138.273 310.848C136.63 311.557 135.211 312.565 134.017 313.872C132.822 315.141 131.889 316.635 131.217 318.352C130.582 320.069 130.265 321.917 130.265 323.896C130.265 326.024 130.582 327.984 131.217 329.776C131.889 331.568 132.822 333.117 134.017 334.424C135.211 335.731 136.63 336.757 138.273 337.504C139.953 338.251 141.819 338.624 143.873 338.624C145.478 338.624 147.027 338.251 148.521 337.504C150.051 336.72 151.47 335.488 152.777 333.808L158.601 337.952C156.809 340.416 154.625 342.208 152.049 343.328C149.473 344.448 146.729 345.008 143.817 345.008C140.755 345.008 137.937 344.523 135.361 343.552C132.822 342.544 130.619 341.144 128.753 339.352C126.923 337.523 125.486 335.339 124.441 332.8C123.395 330.261 122.873 327.443 122.873 324.344C122.873 321.171 123.395 318.296 124.441 315.72C125.486 313.107 126.923 310.885 128.753 309.056C130.619 307.227 132.822 305.827 135.361 304.856C137.937 303.848 140.755 303.344 143.817 303.344C146.505 303.344 148.987 303.829 151.265 304.8C153.579 305.733 155.726 307.339 157.705 309.616L152.217 313.648ZM169.217 332.912C169.441 334.928 170.225 336.496 171.569 337.616C172.913 338.736 174.537 339.296 176.441 339.296C178.121 339.296 179.521 338.96 180.641 338.288C181.798 337.579 182.806 336.701 183.665 335.656L188.481 339.296C186.913 341.237 185.158 342.619 183.217 343.44C181.275 344.261 179.241 344.672 177.113 344.672C175.097 344.672 173.193 344.336 171.401 343.664C169.609 342.992 168.059 342.04 166.753 340.808C165.446 339.576 164.401 338.101 163.617 336.384C162.87 334.629 162.497 332.688 162.497 330.56C162.497 328.432 162.87 326.509 163.617 324.792C164.401 323.037 165.446 321.544 166.753 320.312C168.059 319.08 169.609 318.128 171.401 317.456C173.193 316.784 175.097 316.448 177.113 316.448C178.979 316.448 180.678 316.784 182.209 317.456C183.777 318.091 185.102 319.024 186.185 320.256C187.305 321.488 188.163 323.019 188.761 324.848C189.395 326.64 189.713 328.712 189.713 331.064V332.912H169.217ZM182.993 327.872C182.955 325.893 182.339 324.344 181.145 323.224C179.95 322.067 178.289 321.488 176.161 321.488C174.145 321.488 172.539 322.067 171.345 323.224C170.187 324.381 169.478 325.931 169.217 327.872H182.993ZM197.117 317.12H203.501V321.432H203.613C204.248 320.088 205.218 318.931 206.525 317.96C207.832 316.952 209.605 316.448 211.845 316.448C213.637 316.448 215.149 316.747 216.381 317.344C217.65 317.941 218.677 318.725 219.461 319.696C220.245 320.667 220.805 321.787 221.141 323.056C221.477 324.325 221.645 325.651 221.645 327.032V344H214.925V330.392C214.925 329.645 214.888 328.824 214.813 327.928C214.738 326.995 214.533 326.136 214.197 325.352C213.898 324.531 213.413 323.859 212.741 323.336C212.069 322.776 211.154 322.496 209.997 322.496C208.877 322.496 207.925 322.683 207.141 323.056C206.394 323.429 205.76 323.933 205.237 324.568C204.752 325.203 204.397 325.931 204.173 326.752C203.949 327.573 203.837 328.432 203.837 329.328V344H197.117V317.12ZM227.257 322.832V317.12H232.801V309.336H239.521V317.12H246.913V322.832H239.521V334.592C239.521 335.936 239.764 337 240.249 337.784C240.772 338.568 241.78 338.96 243.273 338.96C243.87 338.96 244.524 338.904 245.233 338.792C245.942 338.643 246.502 338.419 246.913 338.12V343.776C246.204 344.112 245.326 344.336 244.281 344.448C243.273 344.597 242.377 344.672 241.593 344.672C239.801 344.672 238.326 344.467 237.169 344.056C236.049 343.683 235.153 343.104 234.481 342.32C233.846 341.499 233.398 340.491 233.137 339.296C232.913 338.101 232.801 336.72 232.801 335.152V322.832H227.257ZM258.655 332.912C258.879 334.928 259.663 336.496 261.007 337.616C262.351 338.736 263.975 339.296 265.879 339.296C267.559 339.296 268.959 338.96 270.079 338.288C271.236 337.579 272.244 336.701 273.103 335.656L277.919 339.296C276.351 341.237 274.596 342.619 272.655 343.44C270.713 344.261 268.679 344.672 266.551 344.672C264.535 344.672 262.631 344.336 260.839 343.664C259.047 342.992 257.497 342.04 256.191 340.808C254.884 339.576 253.839 338.101 253.055 336.384C252.308 334.629 251.935 332.688 251.935 330.56C251.935 328.432 252.308 326.509 253.055 324.792C253.839 323.037 254.884 321.544 256.191 320.312C257.497 319.08 259.047 318.128 260.839 317.456C262.631 316.784 264.535 316.448 266.551 316.448C268.417 316.448 270.116 316.784 271.647 317.456C273.215 318.091 274.54 319.024 275.623 320.256C276.743 321.488 277.601 323.019 278.199 324.848C278.833 326.64 279.151 328.712 279.151 331.064V332.912H258.655ZM272.431 327.872C272.393 325.893 271.777 324.344 270.583 323.224C269.388 322.067 267.727 321.488 265.599 321.488C263.583 321.488 261.977 322.067 260.783 323.224C259.625 324.381 258.916 325.931 258.655 327.872H272.431ZM286.555 317.12H293.275V321.376H293.387C294.134 319.808 295.198 318.595 296.579 317.736C297.96 316.877 299.547 316.448 301.339 316.448C301.75 316.448 302.142 316.485 302.515 316.56C302.926 316.635 303.336 316.728 303.747 316.84V323.336C303.187 323.187 302.627 323.075 302.067 323C301.544 322.888 301.022 322.832 300.499 322.832C298.931 322.832 297.662 323.131 296.691 323.728C295.758 324.288 295.03 324.941 294.507 325.688C294.022 326.435 293.686 327.181 293.499 327.928C293.35 328.675 293.275 329.235 293.275 329.608V344H286.555V317.12Z" fill="#034C8C"/>
<path d="M210.375 261.999V101.999" stroke="url(#paint0_linear_403_77)" stroke-width="22"/>
<path d="M102 109L204 255" stroke="url(#paint1_linear_403_77)" stroke-width="24"/>
<rect x="87" y="102" width="25" height="160" fill="url(#paint2_linear_403_77)"/>
<rect x="116" y="94" width="34" height="34" rx="17" transform="rotate(180 116 94)" fill="url(#paint3_linear_403_77)"/>
<rect x="194" y="249" width="19" height="13" fill="#FEC601"/>
<g filter="url(#filter0_d_403_77)">
<rect x="150.497" y="95.5537" width="13.6565" height="13.6565" rx="2" transform="rotate(0.271383 150.497 95.5537)" fill="#034C8C"/>
</g>
<g filter="url(#filter1_d_403_77)">
<rect x="158.979" y="59.9678" width="17.219" height="17.219" rx="2" transform="rotate(0.271383 158.979 59.9678)" fill="#3DA5D9"/>
</g>
<g filter="url(#filter2_d_403_77)">
<rect x="147.148" y="50.4111" width="19.5941" height="19.5941" rx="2" transform="rotate(0.271383 147.148 50.4111)" fill="#5EC61E"/>
</g>
<g filter="url(#filter3_d_403_77)">
<rect x="190" y="29.2383" width="19.0003" height="19.0003" rx="2" transform="rotate(0.271383 190 29.2383)" fill="#FEC601"/>
</g>
<g filter="url(#filter4_d_403_77)">
<rect x="133.104" y="7" width="21.9691" height="21.9691" rx="2" transform="rotate(0.271383 133.104 7)" fill="#E95050"/>
</g>
<defs>
<filter id="filter0_d_403_77" x="149.442" y="95.563" width="17.7021" height="17.7021" filterUnits="userSpaceOnUse" color-interpolation-filters="sRGB">
<feFlood flood-opacity="0" result="BackgroundImageFix"/>
<feColorMatrix in="SourceAlpha" type="matrix" values="0 0 0 0 0 0 0 0 0 0 0 0 0 0 0 0 0 0 127 0" result="hardAlpha"/>
<feOffset dx="1" dy="2"/>
<feGaussianBlur stdDeviation="1"/>
<feComposite in2="hardAlpha" operator="out"/>
<feColorMatrix type="matrix" values="0 0 0 0 0.729601 0 0 0 0 0.801849 0 0 0 0 0.854167 0 0 0 0.79 0"/>
<feBlend mode="normal" in2="BackgroundImageFix" result="effect1_dropShadow_403_77"/>
<feBlend mode="normal" in="SourceGraphic" in2="effect1_dropShadow_403_77" result="shape"/>
</filter>
<filter id="filter1_d_403_77" x="157.906" y="59.9771" width="21.2815" height="21.2817" filterUnits="userSpaceOnUse" color-interpolation-filters="sRGB">
<feFlood flood-opacity="0" result="BackgroundImageFix"/>
<feColorMatrix in="SourceAlpha" type="matrix" values="0 0 0 0 0 0 0 0 0 0 0 0 0 0 0 0 0 0 127 0" result="hardAlpha"/>
<feOffset dx="1" dy="2"/>
<feGaussianBlur stdDeviation="1"/>
<feComposite in2="hardAlpha" operator="out"/>
<feColorMatrix type="matrix" values="0 0 0 0 0.729601 0 0 0 0 0.801849 0 0 0 0 0.854167 0 0 0 0.79 0"/>
<feBlend mode="normal" in2="BackgroundImageFix" result="effect1_dropShadow_403_77"/>
<feBlend mode="normal" in="SourceGraphic" in2="effect1_dropShadow_403_77" result="shape"/>
</filter>
<filter id="filter2_d_403_77" x="144.065" y="47.4204" width="23.6677" height="23.668" filterUnits="userSpaceOnUse" color-interpolation-filters="sRGB">
<feFlood flood-opacity="0" result="BackgroundImageFix"/>
<feColorMatrix in="SourceAlpha" type="matrix" values="0 0 0 0 0 0 0 0 0 0 0 0 0 0 0 0 0 0 127 0" result="hardAlpha"/>
<feOffset dx="-1" dy="-1"/>
<feGaussianBlur stdDeviation="1"/>
<feComposite in2="hardAlpha" operator="out"/>
<feColorMatrix type="matrix" values="0 0 0 0 0.729601 0 0 0 0 0.801849 0 0 0 0 0.854167 0 0 0 0.79 0"/>
<feBlend mode="normal" in2="BackgroundImageFix" result="effect1_dropShadow_403_77"/>
<feBlend mode="normal" in="SourceGraphic" in2="effect1_dropShadow_403_77" result="shape"/>
</filter>
<filter id="filter3_d_403_77" x="188.919" y="29.2476" width="23.0713" height="23.0713" filterUnits="userSpaceOnUse" color-interpolation-filters="sRGB">
<feFlood flood-opacity="0" result="BackgroundImageFix"/>
<feColorMatrix in="SourceAlpha" type="matrix" values="0 0 0 0 0 0 0 0 0 0 0 0 0 0 0 0 0 0 127 0" result="hardAlpha"/>
<feOffset dx="1" dy="2"/>
<feGaussianBlur stdDeviation="1"/>
<feComposite in2="hardAlpha" operator="out"/>
<feColorMatrix type="matrix" values="0 0 0 0 0.0117647 0 0 0 0 0.27451 0 0 0 0 0.560784 0 0 0 0.4 0"/>
<feBlend mode="normal" in2="BackgroundImageFix" result="effect1_dropShadow_403_77"/>
<feBlend mode="normal" in="SourceGraphic" in2="effect1_dropShadow_403_77" result="shape"/>
</filter>
<filter id="filter4_d_403_77" x="132.009" y="7.00928" width="26.0542" height="26.0542" filterUnits="userSpaceOnUse" color-interpolation-filters="sRGB">
<feFlood flood-opacity="0" result="BackgroundImageFix"/>
<feColorMatrix in="SourceAlpha" type="matrix" values="0 0 0 0 0 0 0 0 0 0 0 0 0 0 0 0 0 0 127 0" result="hardAlpha"/>
<feOffset dx="1" dy="2"/>
<feGaussianBlur stdDeviation="1"/>
<feComposite in2="hardAlpha" operator="out"/>
<feColorMatrix type="matrix" values="0 0 0 0 0.340347 0 0 0 0 0.529533 0 0 0 0 0.704167 0 0 0 0.63 0"/>
<feBlend mode="normal" in2="BackgroundImageFix" result="effect1_dropShadow_403_77"/>
<feBlend mode="normal" in="SourceGraphic" in2="effect1_dropShadow_403_77" result="shape"/>
</filter>
<linearGradient id="paint0_linear_403_77" x1="210.875" y1="101.999" x2="210.875" y2="261.999" gradientUnits="userSpaceOnUse">
<stop offset="0.203125" stop-color="#E95050" stop-opacity="0.79"/>
<stop offset="0.666667" stop-color="#F79F1B" stop-opacity="0.93"/>
<stop offset="1" stop-color="#FEC601"/>
</linearGradient>
<linearGradient id="paint1_linear_403_77" x1="151.892" y1="109" x2="151.892" y2="254.502" gradientUnits="userSpaceOnUse">
<stop stop-color="#3DA5D9"/>
<stop offset="0.322917" stop-color="#5EC61E"/>
<stop offset="0.489583" stop-color="#5EC61E"/>
<stop offset="0.776042" stop-color="#FEC601"/>
<stop offset="0.98189" stop-color="#FEC601" stop-opacity="0.96"/>
</linearGradient>
<linearGradient id="paint2_linear_403_77" x1="99.5" y1="102" x2="99.5" y2="262" gradientUnits="userSpaceOnUse">
<stop stop-color="#3DA5D9"/>
<stop offset="0.458333" stop-color="#3DA5D9"/>
<stop offset="0.901042" stop-color="#034C8C"/>
</linearGradient>
<linearGradient id="paint3_linear_403_77" x1="133" y1="94" x2="133" y2="128" gradientUnits="userSpaceOnUse">
<stop stop-color="#034C8C"/>
<stop offset="0.666667" stop-color="#3DA5D9"/>
<stop offset="1" stop-color="#3DA5D9"/>
</linearGradient>
</defs>
</svg>
