<svg width="54" height="59" viewBox="0 0 54 59" fill="none" xmlns="http://www.w3.org/2000/svg">
<path d="M37.5081 43.284V15.142H35.6151V40.357L17.8891 12.991L17.8771 12.999V12.909H13.0581V45.095H17.8771V20.57L34.0441 45.529L34.0561 45.521V45.611H37.5081V43.285V43.284Z" fill="#2065D1"/>
<path d="M32.8649 20.999H29.7339C29.4577 20.999 29.2339 21.2229 29.2339 21.499V24.63C29.2339 24.9062 29.4577 25.13 29.7339 25.13H32.8649C33.141 25.13 33.3649 24.9062 33.3649 24.63V21.499C33.3649 21.2229 33.141 20.999 32.8649 20.999Z" fill="#2065D1"/>
<path opacity="0.81" d="M36.1358 12.565H33.1768C32.9006 12.565 32.6768 12.7889 32.6768 13.065V16.024C32.6768 16.3001 32.9006 16.524 33.1768 16.524H36.1358C36.4119 16.524 36.6358 16.3001 36.6358 16.024V13.065C36.6358 12.7889 36.4119 12.565 36.1358 12.565Z" fill="#2065D1"/>
<path opacity="0.43" d="M32.865 10.671H29.562C29.2859 10.671 29.062 10.8949 29.062 11.171V14.474C29.062 14.7502 29.2859 14.974 29.562 14.974H32.865C33.1412 14.974 33.365 14.7502 33.365 14.474V11.171C33.365 10.8949 33.1412 10.671 32.865 10.671Z" fill="#2065D1"/>
<path opacity="0.65" d="M41.1271 3.44202H37.3081C37.032 3.44202 36.8081 3.66587 36.8081 3.94202V7.76102C36.8081 8.03716 37.032 8.26102 37.3081 8.26102H41.1271C41.4032 8.26102 41.6271 8.03716 41.6271 7.76102V3.94202C41.6271 3.66587 41.4032 3.44202 41.1271 3.44202Z" fill="#2065D1"/>
<path opacity="0.88" d="M30.456 0H26.292C26.0158 0 25.792 0.223858 25.792 0.5V4.664C25.792 4.94014 26.0158 5.164 26.292 5.164H30.456C30.7321 5.164 30.956 4.94014 30.956 4.664V0.5C30.956 0.223858 30.7321 0 30.456 0Z" fill="#2065D1"/>
<path d="M15.387 9.47101C17.0511 9.47101 18.4 8.12204 18.4 6.45801C18.4 4.79397 17.0511 3.44501 15.387 3.44501C13.723 3.44501 12.374 4.79397 12.374 6.45801C12.374 8.12204 13.723 9.47101 15.387 9.47101Z" fill="#2065D1"/>
<path opacity="0.81" d="M49.9769 52.53H51.0948L51.1709 53.157C51.4684 52.9649 51.7889 52.811 52.1249 52.699C52.5091 52.5732 52.9089 52.5015 53.3129 52.4859L53.3019 53.827C52.9066 53.8306 52.5118 53.8542 52.1189 53.8979C51.8279 53.9262 51.542 53.9935 51.2689 54.0979V58.284H49.9769V52.53ZM47.4769 54.9449V54.73C47.479 54.54 47.4642 54.3503 47.4329 54.163C47.414 54.0178 47.3579 53.8799 47.2699 53.7629C47.1774 53.6519 47.0543 53.5705 46.9159 53.529C46.7174 53.4723 46.5112 53.4466 46.3049 53.4529C46.0771 53.4465 45.8499 53.4804 45.6339 53.553C45.4759 53.6071 45.3371 53.7057 45.2339 53.837C45.1321 53.9736 45.0636 54.1322 45.0339 54.3C44.999 54.5125 44.9826 54.7276 44.9849 54.943L47.4769 54.9449ZM43.6669 55.345C43.6506 54.8422 43.73 54.341 43.9009 53.868C44.0317 53.5188 44.2447 53.2064 44.5219 52.957C44.7762 52.7372 45.0787 52.5803 45.4048 52.499C45.7374 52.4114 46.08 52.3674 46.4239 52.368C46.7955 52.3562 47.1658 52.4174 47.5139 52.548C47.7849 52.6536 48.0235 52.8284 48.2059 53.055C48.383 53.2823 48.5061 53.547 48.5659 53.829C48.6366 54.1575 48.6702 54.4929 48.6659 54.829C48.6659 54.9996 48.6585 55.176 48.6439 55.358C48.6292 55.54 48.6128 55.7269 48.5948 55.9189H44.9949C44.9937 56.1396 45.0212 56.3595 45.0768 56.573C45.1251 56.7371 45.2154 56.8856 45.3389 57.004C45.4791 57.1214 45.6454 57.2037 45.8239 57.2439C46.0731 57.2958 46.3273 57.3196 46.5818 57.3149C46.8365 57.3149 47.0746 57.3096 47.2959 57.2989C47.5172 57.2883 47.7115 57.2719 47.8788 57.2499C48.0748 57.2319 48.2529 57.2083 48.4129 57.1789V58.084C48.2165 58.1566 48.0161 58.2184 47.8129 58.269C47.5988 58.3216 47.3822 58.3634 47.1639 58.394C46.9026 58.435 46.6384 58.4551 46.3739 58.454C45.986 58.4599 45.5995 58.4046 45.2289 58.29C44.9055 58.1912 44.6128 58.0111 44.3788 57.767C44.1326 57.4888 43.9519 57.1591 43.8499 56.8019C43.7174 56.3259 43.6551 55.833 43.6649 55.339L43.6669 55.345ZM39.7529 53.6059H38.9019V52.53H39.7529V51.31L41.0449 51.021V52.521H42.4949V53.595H41.0449V56.686C41.0427 56.7976 41.0518 56.9092 41.0719 57.019C41.0893 57.0982 41.1268 57.1715 41.1808 57.232C41.2445 57.2875 41.3218 57.3251 41.4048 57.3409C41.5291 57.3611 41.655 57.3702 41.7809 57.368C41.9222 57.368 42.0496 57.3663 42.1629 57.363C42.2762 57.3596 42.3742 57.3523 42.4568 57.3409C42.5515 57.3336 42.6352 57.3246 42.7079 57.314V58.175C42.5742 58.2279 42.4376 58.2732 42.2989 58.311C42.1515 58.3475 42.0022 58.3765 41.8519 58.3979C41.6661 58.4283 41.4781 58.443 41.2899 58.4419C41.0476 58.4467 40.8058 58.4191 40.5709 58.36C40.3965 58.3149 40.2345 58.2312 40.0969 58.115C39.9751 57.9996 39.885 57.855 39.8349 57.6949C39.7772 57.5023 39.7496 57.302 39.7529 57.1009V53.6059ZM32.5679 52.532H33.5159L33.6739 52.957C33.8845 52.8433 34.1031 52.745 34.3279 52.663C34.5573 52.5832 34.791 52.5164 35.0279 52.4629C35.3067 52.3995 35.5919 52.3684 35.8779 52.37C36.1067 52.3506 36.337 52.3805 36.5533 52.4576C36.7696 52.5347 36.9669 52.6572 37.1319 52.8169C37.4372 53.2129 37.5831 53.7088 37.5409 54.207V58.284H36.2489V54.365C36.2508 54.2369 36.2397 54.1089 36.2159 53.983C36.2031 53.8846 36.1593 53.7928 36.0909 53.7209C36.0123 53.6445 35.914 53.5915 35.8069 53.568C35.6429 53.5307 35.4749 53.5142 35.3069 53.519C35.108 53.5177 34.9094 53.5324 34.7129 53.563C34.5349 53.5883 34.3822 53.6156 34.2549 53.6449C34.1194 53.6775 33.9859 53.7176 33.8549 53.7649V58.284H32.5629L32.5679 52.532ZM30.0679 54.9469V54.73C30.0701 54.54 30.0554 54.3503 30.0239 54.163C30.005 54.0178 29.9489 53.8799 29.8609 53.7629C29.7685 53.6518 29.6454 53.5704 29.5069 53.529C29.3087 53.4723 29.1029 53.4466 28.8969 53.4529C28.669 53.4465 28.4419 53.4804 28.2259 53.553C28.068 53.6072 27.9291 53.7058 27.8259 53.837C27.7242 53.9737 27.6558 54.1322 27.6259 54.3C27.5911 54.5125 27.5747 54.7276 27.5768 54.943L30.0679 54.9469ZM26.2579 55.347C26.2415 54.8443 26.321 54.343 26.4919 53.87C26.6229 53.521 26.8359 53.2085 27.1129 52.959C27.3673 52.7393 27.6697 52.5824 27.9958 52.501C28.3284 52.4134 28.671 52.3694 29.0149 52.37C29.3865 52.3583 29.7567 52.4194 30.1049 52.55C30.3759 52.6555 30.6145 52.8303 30.7969 53.0569C30.9738 53.2844 31.0969 53.5491 31.1569 53.831C31.2276 54.1595 31.2612 54.495 31.2569 54.831C31.2569 55.0016 31.2495 55.178 31.2349 55.36C31.2202 55.542 31.2039 55.7289 31.1859 55.9209H27.5859C27.5848 56.1416 27.6123 56.3614 27.6678 56.5749C27.7158 56.7389 27.8058 56.8875 27.9289 57.006C28.0692 57.1234 28.2354 57.2056 28.4139 57.246C28.6631 57.2978 28.9174 57.3216 29.1719 57.3169C29.4265 57.3169 29.6645 57.3116 29.8859 57.301C30.1072 57.2903 30.3015 57.2739 30.4689 57.2519C30.6649 57.2339 30.8429 57.2103 31.0029 57.181V58.086C30.8048 58.1588 30.6028 58.2206 30.3979 58.271C30.1838 58.3237 29.9672 58.3654 29.7489 58.396C29.4876 58.4371 29.2234 58.4571 28.9589 58.456C28.5709 58.462 28.1845 58.4066 27.8138 58.292C27.4904 58.1932 27.1978 58.0132 26.9639 57.769C26.7176 57.4909 26.5369 57.1611 26.4349 56.8039C26.3036 56.327 26.2426 55.8335 26.2538 55.339L26.2579 55.347ZM20.9919 55.407C20.9822 54.9358 21.0498 54.4663 21.1919 54.017C21.3041 53.6731 21.4881 53.3571 21.7319 53.09C21.9535 52.8549 22.2277 52.6757 22.5319 52.5669C22.8453 52.4563 23.1755 52.4008 23.5079 52.4029C23.747 52.4008 23.9858 52.4189 24.2219 52.457C24.4037 52.4838 24.5839 52.5201 24.7619 52.566C24.917 52.6061 25.0684 52.6589 25.2148 52.7239V53.618L24.8149 53.5799L24.3949 53.558C24.2389 53.5473 24.0755 53.542 23.9048 53.542C23.6696 53.5385 23.4347 53.5623 23.2049 53.613C23.0209 53.6533 22.8535 53.7485 22.7249 53.886C22.5864 54.0463 22.4923 54.2401 22.4518 54.448C22.3868 54.7596 22.3576 55.0777 22.3649 55.396C22.3576 55.7222 22.3912 56.0481 22.4648 56.366C22.517 56.5822 22.6241 56.7813 22.7759 56.944C22.9196 57.0816 23.0991 57.1762 23.2939 57.217C23.5364 57.2637 23.7829 57.2854 24.0298 57.282C24.2078 57.282 24.3715 57.2783 24.5209 57.271C24.6702 57.2637 24.8036 57.251 24.9209 57.233C25.0542 57.2183 25.1722 57.2 25.2749 57.178V58.0829C25.1399 58.1559 24.9973 58.2143 24.8499 58.2569C24.6746 58.3082 24.4962 58.3482 24.3159 58.3769C24.0671 58.4161 23.8156 58.4344 23.5638 58.4319C23.225 58.4344 22.8877 58.3848 22.5638 58.285C22.2567 58.1916 21.9777 58.0232 21.7519 57.795C21.5037 57.5302 21.3175 57.2136 21.2068 56.868C21.0533 56.3937 20.9793 55.8974 20.9879 55.399L20.9919 55.407ZM17.2419 57.3589C17.4815 57.3685 17.7204 57.3258 17.9419 57.2339C18.1138 57.152 18.2578 57.0213 18.3559 56.858C18.4622 56.6695 18.5301 56.4618 18.5558 56.2469C18.5944 55.9686 18.6124 55.6879 18.6099 55.407C18.6124 55.1297 18.5944 54.8525 18.5558 54.5779C18.5312 54.3631 18.4632 54.1556 18.3559 53.9679C18.26 53.8029 18.1154 53.6716 17.9419 53.592C17.495 53.4177 16.9988 53.4177 16.5519 53.592C16.3773 53.6723 16.231 53.8033 16.1319 53.9679C16.026 54.1562 15.958 54.3635 15.9319 54.5779C15.897 54.8529 15.8806 55.1299 15.8829 55.407C15.8806 55.6877 15.897 55.9683 15.9319 56.2469C15.9591 56.4615 16.027 56.6689 16.1319 56.858C16.2329 57.021 16.3787 57.1515 16.5519 57.2339C16.7696 57.3212 17.0035 57.3608 17.2379 57.35L17.2419 57.3589ZM14.5159 55.407C14.5094 54.9711 14.5626 54.5364 14.6739 54.115C14.765 53.7646 14.9327 53.4387 15.1649 53.1609C15.3962 52.8985 15.6879 52.6963 16.0149 52.5719C16.8105 52.3031 17.6723 52.3031 18.4679 52.5719C18.7959 52.6944 19.0881 52.8968 19.3179 53.1609C19.55 53.4388 19.7177 53.7646 19.8089 54.115C19.9202 54.5364 19.9733 54.9711 19.9669 55.407C19.9726 55.8454 19.9195 56.2826 19.8089 56.707C19.7177 57.0573 19.55 57.3831 19.3179 57.6609C19.0878 57.9248 18.7957 58.1272 18.4679 58.2499C17.6723 58.5187 16.8105 58.5187 16.0149 58.2499C15.688 58.1254 15.3963 57.9232 15.1649 57.6609C14.9327 57.3831 14.7651 57.0573 14.6739 56.707C14.5612 56.2802 14.5068 55.8403 14.5119 55.399L14.5159 55.407ZM11.0709 53.607H10.2639V52.53H11.0709V51.571C11.0676 51.307 11.0952 51.0435 11.1529 50.7859C11.202 50.5752 11.2969 50.3779 11.4308 50.2079C11.5634 50.0479 11.7359 49.9258 11.9308 49.8539C12.177 49.7641 12.4379 49.7214 12.6999 49.728C12.9037 49.7269 13.1074 49.7379 13.3099 49.761C13.4674 49.778 13.624 49.8033 13.7789 49.837C13.9275 49.8696 14.0609 49.9029 14.1789 49.9369V50.896L13.8629 50.874C13.7682 50.8666 13.6592 50.861 13.5359 50.857C13.4126 50.853 13.2852 50.8513 13.1539 50.852C13.0222 50.849 12.8906 50.8618 12.7619 50.8899C12.6717 50.9066 12.5873 50.9462 12.5168 51.0049C12.4571 51.0585 12.4138 51.1278 12.3918 51.2049C12.3682 51.3048 12.3572 51.4073 12.3589 51.5099V52.53H13.8309V53.6039H12.3589V58.2809H11.0669L11.0709 53.607ZM3.89685 52.5329H4.84485L5.00287 52.9579C5.21349 52.8443 5.43205 52.746 5.65686 52.6639C5.88624 52.5841 6.11996 52.5174 6.35687 52.464C6.63571 52.4005 6.92089 52.3693 7.20685 52.371C7.43567 52.3515 7.66601 52.3814 7.88232 52.4585C8.09864 52.5356 8.29593 52.6582 8.46088 52.818C8.76615 53.2139 8.91206 53.7098 8.86987 54.2079V58.285H7.57788V54.366C7.57972 54.2378 7.56865 54.1098 7.54486 53.9839C7.53202 53.8856 7.48824 53.7938 7.41986 53.722C7.34131 53.6455 7.24294 53.5925 7.13586 53.569C6.97192 53.5317 6.80393 53.5152 6.63586 53.5199C6.43701 53.5187 6.23837 53.5334 6.04187 53.564C5.86387 53.5893 5.7112 53.6167 5.58386 53.646C5.44842 53.6786 5.31492 53.7186 5.1839 53.766V58.285H3.89185L3.89685 52.5329ZM0.691895 50.5049H1.99988V58.284H0.691895V50.5049Z" fill="#2065D1"/>
</svg>
