<svg width="319" height="375" viewBox="0 0 319 375" fill="none" xmlns="http://www.w3.org/2000/svg">
<path d="M24.4035 304.352H31.4595V344H24.4035V304.352ZM40.6614 317.12H47.0454V321.432H47.1574C47.7921 320.088 48.7628 318.931 50.0694 317.96C51.3761 316.952 53.1494 316.448 55.3894 316.448C57.1814 316.448 58.6934 316.747 59.9254 317.344C61.1948 317.941 62.2214 318.725 63.0054 319.696C63.7894 320.667 64.3494 321.787 64.6854 323.056C65.0214 324.325 65.1894 325.651 65.1894 327.032V344H58.4694V330.392C58.4694 329.645 58.4321 328.824 58.3574 327.928C58.2828 326.995 58.0774 326.136 57.7414 325.352C57.4428 324.531 56.9574 323.859 56.2854 323.336C55.6134 322.776 54.6988 322.496 53.5414 322.496C52.4214 322.496 51.4694 322.683 50.6854 323.056C49.9388 323.429 49.3041 323.933 48.7814 324.568C48.2961 325.203 47.9414 325.931 47.7174 326.752C47.4934 327.573 47.3814 328.432 47.3814 329.328V344H40.6614V317.12ZM76.3457 322.832H70.8017V317.12H76.3457V313.312C76.3457 311.445 76.4764 309.765 76.7377 308.272C76.999 306.741 77.4844 305.435 78.1937 304.352C78.9404 303.269 79.967 302.448 81.2737 301.888C82.5804 301.291 84.279 300.992 86.3697 300.992C87.9004 300.992 89.319 301.123 90.6257 301.384L90.1777 307.096C89.6924 306.984 89.2257 306.891 88.7777 306.816C88.3297 306.741 87.863 306.704 87.3777 306.704C86.4444 306.704 85.6977 306.853 85.1377 307.152C84.5777 307.451 84.1297 307.861 83.7937 308.384C83.495 308.869 83.2897 309.448 83.1777 310.12C83.103 310.792 83.0657 311.501 83.0657 312.248V317.12H89.2817V322.832H83.0657V344H76.3457V322.832ZM93.4012 330.56C93.4012 328.432 93.7745 326.509 94.5212 324.792C95.3052 323.037 96.3505 321.544 97.6572 320.312C98.9639 319.08 100.513 318.128 102.305 317.456C104.097 316.784 106.001 316.448 108.017 316.448C110.033 316.448 111.937 316.784 113.729 317.456C115.521 318.128 117.071 319.08 118.377 320.312C119.684 321.544 120.711 323.037 121.457 324.792C122.241 326.509 122.633 328.432 122.633 330.56C122.633 332.688 122.241 334.629 121.457 336.384C120.711 338.101 119.684 339.576 118.377 340.808C117.071 342.04 115.521 342.992 113.729 343.664C111.937 344.336 110.033 344.672 108.017 344.672C106.001 344.672 104.097 344.336 102.305 343.664C100.513 342.992 98.9639 342.04 97.6572 340.808C96.3505 339.576 95.3052 338.101 94.5212 336.384C93.7745 334.629 93.4012 332.688 93.4012 330.56ZM100.121 330.56C100.121 331.605 100.289 332.613 100.625 333.584C100.999 334.555 101.521 335.413 102.193 336.16C102.903 336.907 103.743 337.504 104.713 337.952C105.684 338.4 106.785 338.624 108.017 338.624C109.249 338.624 110.351 338.4 111.321 337.952C112.292 337.504 113.113 336.907 113.785 336.16C114.495 335.413 115.017 334.555 115.353 333.584C115.727 332.613 115.913 331.605 115.913 330.56C115.913 329.515 115.727 328.507 115.353 327.536C115.017 326.565 114.495 325.707 113.785 324.96C113.113 324.213 112.292 323.616 111.321 323.168C110.351 322.72 109.249 322.496 108.017 322.496C106.785 322.496 105.684 322.72 104.713 323.168C103.743 323.616 102.903 324.213 102.193 324.96C101.521 325.707 100.999 326.565 100.625 327.536C100.289 328.507 100.121 329.515 100.121 330.56ZM148.413 325.184C147.629 324.363 146.808 323.709 145.949 323.224C145.09 322.739 144.213 322.496 143.317 322.496C142.085 322.496 140.984 322.72 140.013 323.168C139.042 323.616 138.202 324.213 137.493 324.96C136.821 325.707 136.298 326.565 135.925 327.536C135.589 328.507 135.421 329.515 135.421 330.56C135.421 331.605 135.589 332.613 135.925 333.584C136.298 334.555 136.821 335.413 137.493 336.16C138.202 336.907 139.042 337.504 140.013 337.952C140.984 338.4 142.085 338.624 143.317 338.624C144.362 338.624 145.333 338.419 146.229 338.008C147.125 337.56 147.89 336.925 148.525 336.104L153.005 340.92C152.333 341.592 151.549 342.171 150.653 342.656C149.794 343.141 148.917 343.533 148.021 343.832C147.125 344.131 146.266 344.336 145.445 344.448C144.624 344.597 143.914 344.672 143.317 344.672C141.301 344.672 139.397 344.336 137.605 343.664C135.813 342.992 134.264 342.04 132.957 340.808C131.65 339.576 130.605 338.101 129.821 336.384C129.074 334.629 128.701 332.688 128.701 330.56C128.701 328.432 129.074 326.509 129.821 324.792C130.605 323.037 131.65 321.544 132.957 320.312C134.264 319.08 135.813 318.128 137.605 317.456C139.397 316.784 141.301 316.448 143.317 316.448C145.034 316.448 146.752 316.784 148.469 317.456C150.224 318.091 151.754 319.117 153.061 320.536L148.413 325.184ZM163.557 332.912C163.781 334.928 164.565 336.496 165.909 337.616C167.253 338.736 168.877 339.296 170.781 339.296C172.461 339.296 173.861 338.96 174.981 338.288C176.138 337.579 177.146 336.701 178.005 335.656L182.821 339.296C181.253 341.237 179.498 342.619 177.557 343.44C175.615 344.261 173.581 344.672 171.453 344.672C169.437 344.672 167.533 344.336 165.741 343.664C163.949 342.992 162.399 342.04 161.093 340.808C159.786 339.576 158.741 338.101 157.957 336.384C157.21 334.629 156.837 332.688 156.837 330.56C156.837 328.432 157.21 326.509 157.957 324.792C158.741 323.037 159.786 321.544 161.093 320.312C162.399 319.08 163.949 318.128 165.741 317.456C167.533 316.784 169.437 316.448 171.453 316.448C173.319 316.448 175.018 316.784 176.549 317.456C178.117 318.091 179.442 319.024 180.525 320.256C181.645 321.488 182.503 323.019 183.101 324.848C183.735 326.64 184.053 328.712 184.053 331.064V332.912H163.557ZM177.333 327.872C177.295 325.893 176.679 324.344 175.485 323.224C174.29 322.067 172.629 321.488 170.501 321.488C168.485 321.488 166.879 322.067 165.685 323.224C164.527 324.381 163.818 325.931 163.557 327.872H177.333ZM191.457 317.12H197.841V321.432H197.953C198.587 320.088 199.558 318.931 200.865 317.96C202.171 316.952 203.945 316.448 206.185 316.448C207.977 316.448 209.489 316.747 210.721 317.344C211.99 317.941 213.017 318.725 213.801 319.696C214.585 320.667 215.145 321.787 215.481 323.056C215.817 324.325 215.985 325.651 215.985 327.032V344H209.265V330.392C209.265 329.645 209.227 328.824 209.153 327.928C209.078 326.995 208.873 326.136 208.537 325.352C208.238 324.531 207.753 323.859 207.081 323.336C206.409 322.776 205.494 322.496 204.337 322.496C203.217 322.496 202.265 322.683 201.481 323.056C200.734 323.429 200.099 323.933 199.577 324.568C199.091 325.203 198.737 325.931 198.513 326.752C198.289 327.573 198.177 328.432 198.177 329.328V344H191.457V317.12ZM221.597 322.832V317.12H227.141V309.336H233.861V317.12H241.253V322.832H233.861V334.592C233.861 335.936 234.104 337 234.589 337.784C235.112 338.568 236.12 338.96 237.613 338.96C238.21 338.96 238.864 338.904 239.573 338.792C240.282 338.643 240.842 338.419 241.253 338.12V343.776C240.544 344.112 239.666 344.336 238.621 344.448C237.613 344.597 236.717 344.672 235.933 344.672C234.141 344.672 232.666 344.467 231.509 344.056C230.389 343.683 229.493 343.104 228.821 342.32C228.186 341.499 227.738 340.491 227.477 339.296C227.253 338.101 227.141 336.72 227.141 335.152V322.832H221.597ZM252.995 332.912C253.219 334.928 254.003 336.496 255.347 337.616C256.691 338.736 258.315 339.296 260.219 339.296C261.899 339.296 263.299 338.96 264.419 338.288C265.576 337.579 266.584 336.701 267.443 335.656L272.259 339.296C270.691 341.237 268.936 342.619 266.995 343.44C265.053 344.261 263.019 344.672 260.891 344.672C258.875 344.672 256.971 344.336 255.179 343.664C253.387 342.992 251.837 342.04 250.531 340.808C249.224 339.576 248.179 338.101 247.395 336.384C246.648 334.629 246.275 332.688 246.275 330.56C246.275 328.432 246.648 326.509 247.395 324.792C248.179 323.037 249.224 321.544 250.531 320.312C251.837 319.08 253.387 318.128 255.179 317.456C256.971 316.784 258.875 316.448 260.891 316.448C262.757 316.448 264.456 316.784 265.987 317.456C267.555 318.091 268.88 319.024 269.963 320.256C271.083 321.488 271.941 323.019 272.539 324.848C273.173 326.64 273.491 328.712 273.491 331.064V332.912H252.995ZM266.771 327.872C266.733 325.893 266.117 324.344 264.923 323.224C263.728 322.067 262.067 321.488 259.939 321.488C257.923 321.488 256.317 322.067 255.123 323.224C253.965 324.381 253.256 325.931 252.995 327.872H266.771ZM280.895 317.12H287.615V321.376H287.727C288.474 319.808 289.538 318.595 290.919 317.736C292.3 316.877 293.887 316.448 295.679 316.448C296.09 316.448 296.482 316.485 296.855 316.56C297.266 316.635 297.676 316.728 298.087 316.84V323.336C297.527 323.187 296.967 323.075 296.407 323C295.884 322.888 295.362 322.832 294.839 322.832C293.271 322.832 292.002 323.131 291.031 323.728C290.098 324.288 289.37 324.941 288.847 325.688C288.362 326.435 288.026 327.181 287.839 327.928C287.69 328.675 287.615 329.235 287.615 329.608V344H280.895V317.12Z" fill="#034C8C"/>
<path d="M210.375 261.999V101.999" stroke="url(#paint0_linear_403_77)" stroke-width="22"/>
<path d="M102 109L204 255" stroke="url(#paint1_linear_403_77)" stroke-width="24"/>
<rect x="87" y="102" width="25" height="160" fill="url(#paint2_linear_403_77)"/>
<rect x="116" y="94" width="34" height="34" rx="17" transform="rotate(180 116 94)" fill="url(#paint3_linear_403_77)"/>
<rect x="194" y="249" width="19" height="13" fill="#FEC601"/>
<g filter="url(#filter0_d_403_77)">
<rect x="150.497" y="95.5537" width="13.6565" height="13.6565" rx="2" transform="rotate(0.271383 150.497 95.5537)" fill="#034C8C"/>
</g>
<g filter="url(#filter1_d_403_77)">
<rect x="158.979" y="59.9678" width="17.219" height="17.219" rx="2" transform="rotate(0.271383 158.979 59.9678)" fill="#3DA5D9"/>
</g>
<g filter="url(#filter2_d_403_77)">
<rect x="147.148" y="50.4111" width="19.5941" height="19.5941" rx="2" transform="rotate(0.271383 147.148 50.4111)" fill="#5EC61E"/>
</g>
<g filter="url(#filter3_d_403_77)">
<rect x="190" y="29.2383" width="19.0003" height="19.0003" rx="2" transform="rotate(0.271383 190 29.2383)" fill="#FEC601"/>
</g>
<g filter="url(#filter4_d_403_77)">
<rect x="133.104" y="7" width="21.9691" height="21.9691" rx="2" transform="rotate(0.271383 133.104 7)" fill="#E95050"/>
</g>
<defs>
<filter id="filter0_d_403_77" x="149.442" y="95.563" width="17.7021" height="17.7021" filterUnits="userSpaceOnUse" color-interpolation-filters="sRGB">
<feFlood flood-opacity="0" result="BackgroundImageFix"/>
<feColorMatrix in="SourceAlpha" type="matrix" values="0 0 0 0 0 0 0 0 0 0 0 0 0 0 0 0 0 0 127 0" result="hardAlpha"/>
<feOffset dx="1" dy="2"/>
<feGaussianBlur stdDeviation="1"/>
<feComposite in2="hardAlpha" operator="out"/>
<feColorMatrix type="matrix" values="0 0 0 0 0.729601 0 0 0 0 0.801849 0 0 0 0 0.854167 0 0 0 0.79 0"/>
<feBlend mode="normal" in2="BackgroundImageFix" result="effect1_dropShadow_403_77"/>
<feBlend mode="normal" in="SourceGraphic" in2="effect1_dropShadow_403_77" result="shape"/>
</filter>
<filter id="filter1_d_403_77" x="157.906" y="59.9771" width="21.2815" height="21.2817" filterUnits="userSpaceOnUse" color-interpolation-filters="sRGB">
<feFlood flood-opacity="0" result="BackgroundImageFix"/>
<feColorMatrix in="SourceAlpha" type="matrix" values="0 0 0 0 0 0 0 0 0 0 0 0 0 0 0 0 0 0 127 0" result="hardAlpha"/>
<feOffset dx="1" dy="2"/>
<feGaussianBlur stdDeviation="1"/>
<feComposite in2="hardAlpha" operator="out"/>
<feColorMatrix type="matrix" values="0 0 0 0 0.729601 0 0 0 0 0.801849 0 0 0 0 0.854167 0 0 0 0.79 0"/>
<feBlend mode="normal" in2="BackgroundImageFix" result="effect1_dropShadow_403_77"/>
<feBlend mode="normal" in="SourceGraphic" in2="effect1_dropShadow_403_77" result="shape"/>
</filter>
<filter id="filter2_d_403_77" x="144.065" y="47.4204" width="23.6677" height="23.668" filterUnits="userSpaceOnUse" color-interpolation-filters="sRGB">
<feFlood flood-opacity="0" result="BackgroundImageFix"/>
<feColorMatrix in="SourceAlpha" type="matrix" values="0 0 0 0 0 0 0 0 0 0 0 0 0 0 0 0 0 0 127 0" result="hardAlpha"/>
<feOffset dx="-1" dy="-1"/>
<feGaussianBlur stdDeviation="1"/>
<feComposite in2="hardAlpha" operator="out"/>
<feColorMatrix type="matrix" values="0 0 0 0 0.729601 0 0 0 0 0.801849 0 0 0 0 0.854167 0 0 0 0.79 0"/>
<feBlend mode="normal" in2="BackgroundImageFix" result="effect1_dropShadow_403_77"/>
<feBlend mode="normal" in="SourceGraphic" in2="effect1_dropShadow_403_77" result="shape"/>
</filter>
<filter id="filter3_d_403_77" x="188.919" y="29.2476" width="23.0713" height="23.0713" filterUnits="userSpaceOnUse" color-interpolation-filters="sRGB">
<feFlood flood-opacity="0" result="BackgroundImageFix"/>
<feColorMatrix in="SourceAlpha" type="matrix" values="0 0 0 0 0 0 0 0 0 0 0 0 0 0 0 0 0 0 127 0" result="hardAlpha"/>
<feOffset dx="1" dy="2"/>
<feGaussianBlur stdDeviation="1"/>
<feComposite in2="hardAlpha" operator="out"/>
<feColorMatrix type="matrix" values="0 0 0 0 0.0117647 0 0 0 0 0.27451 0 0 0 0 0.560784 0 0 0 0.4 0"/>
<feBlend mode="normal" in2="BackgroundImageFix" result="effect1_dropShadow_403_77"/>
<feBlend mode="normal" in="SourceGraphic" in2="effect1_dropShadow_403_77" result="shape"/>
</filter>
<filter id="filter4_d_403_77" x="132.009" y="7.00928" width="26.0542" height="26.0542" filterUnits="userSpaceOnUse" color-interpolation-filters="sRGB">
<feFlood flood-opacity="0" result="BackgroundImageFix"/>
<feColorMatrix in="SourceAlpha" type="matrix" values="0 0 0 0 0 0 0 0 0 0 0 0 0 0 0 0 0 0 127 0" result="hardAlpha"/>
<feOffset dx="1" dy="2"/>
<feGaussianBlur stdDeviation="1"/>
<feComposite in2="hardAlpha" operator="out"/>
<feColorMatrix type="matrix" values="0 0 0 0 0.340347 0 0 0 0 0.529533 0 0 0 0 0.704167 0 0 0 0.63 0"/>
<feBlend mode="normal" in2="BackgroundImageFix" result="effect1_dropShadow_403_77"/>
<feBlend mode="normal" in="SourceGraphic" in2="effect1_dropShadow_403_77" result="shape"/>
</filter>
<linearGradient id="paint0_linear_403_77" x1="210.875" y1="101.999" x2="210.875" y2="261.999" gradientUnits="userSpaceOnUse">
<stop offset="0.203125" stop-color="#E95050" stop-opacity="0.79"/>
<stop offset="0.666667" stop-color="#F79F1B" stop-opacity="0.93"/>
<stop offset="1" stop-color="#FEC601"/>
</linearGradient>
<linearGradient id="paint1_linear_403_77" x1="151.892" y1="109" x2="151.892" y2="254.502" gradientUnits="userSpaceOnUse">
<stop stop-color="#3DA5D9"/>
<stop offset="0.322917" stop-color="#5EC61E"/>
<stop offset="0.489583" stop-color="#5EC61E"/>
<stop offset="0.776042" stop-color="#FEC601"/>
<stop offset="0.98189" stop-color="#FEC601" stop-opacity="0.96"/>
</linearGradient>
<linearGradient id="paint2_linear_403_77" x1="99.5" y1="102" x2="99.5" y2="262" gradientUnits="userSpaceOnUse">
<stop stop-color="#3DA5D9"/>
<stop offset="0.458333" stop-color="#3DA5D9"/>
<stop offset="0.901042" stop-color="#034C8C"/>
</linearGradient>
<linearGradient id="paint3_linear_403_77" x1="133" y1="94" x2="133" y2="128" gradientUnits="userSpaceOnUse">
<stop stop-color="#034C8C"/>
<stop offset="0.666667" stop-color="#3DA5D9"/>
<stop offset="1" stop-color="#3DA5D9"/>
</linearGradient>
</defs>
</svg>
